<?xml version="1.0" standalone="no"?>
<!DOCTYPE svg PUBLIC "-//W3C//DTD SVG 20010904//EN"
 "http://www.w3.org/TR/2001/REC-SVG-20010904/DTD/svg10.dtd">
<svg version="1.0" xmlns="http://www.w3.org/2000/svg"
 width="300.000000pt" height="121.000000pt" viewBox="0 0 300.000000 121.000000"
 preserveAspectRatio="xMidYMid meet">
<metadata>
Created by potrace 1.10, written by Peter Selinger 2001-2011
</metadata>
<g transform="translate(0.000000,121.000000) scale(0.100000,-0.100000)"
fill="#000000" stroke="none">
<path d="M0 605 l0 -605 1500 0 1500 0 0 605 0 605 -1500 0 -1500 0 0 -605z
m1230 132 c27 -14 35 -36 26 -73 -6 -22 -12 -24 -61 -24 -44 0 -53 3 -49 15 5
13 -11 15 -110 15 -71 0 -116 4 -116 10 0 11 20 13 139 12 46 -1 89 -6 95 -12
15 -15 86 -13 86 3 0 19 -31 42 -55 41 -11 -1 -71 -2 -132 -3 l-113 -1 -30
-32 c-17 -17 -28 -38 -26 -45 3 -7 1 -13 -5 -13 -6 0 -8 -4 -4 -9 3 -5 1 -12
-5 -16 -7 -4 -7 -12 0 -25 8 -16 24 -18 117 -19 112 -2 133 -9 133 -46 0 -39
-28 -53 -110 -55 -99 -3 -110 -2 -110 10 0 6 38 10 94 10 l94 0 10 30 11 29
-126 3 c-151 4 -156 7 -130 91 19 59 49 93 93 107 46 13 255 12 284 -3z m483
4 c36 -14 40 -37 17 -107 -15 -44 -32 -73 -56 -94 l-35 -30 -152 0 c-117 -1
-147 -3 -132 -12 11 -6 21 -12 23 -14 2 -1 -2 -20 -9 -43 l-12 -41 -55 0 c-48
0 -53 2 -47 18 4 9 29 75 55 147 27 72 53 142 59 158 l11 27 154 0 c85 0 166
-4 179 -9z m247 7 c0 -2 -29 -79 -64 -173 l-64 -170 -52 -3 c-40 -2 -51 0 -48
10 3 7 31 86 63 176 l58 162 53 0 c30 0 54 -1 54 -2z m195 -15 c-4 -10 -12
-31 -17 -48 -6 -16 -15 -36 -21 -42 -18 -24 4 -13 93 47 81 55 94 60 142 60
l53 0 -106 -71 -106 -70 58 -152 c33 -83 59 -152 59 -154 0 -2 -24 -3 -52 -3
l-53 0 -45 121 c-25 66 -47 122 -50 124 -13 8 -28 -14 -51 -75 l-25 -65 -53
-3 c-29 -2 -51 1 -50 6 2 5 31 84 64 175 l60 167 54 0 c47 0 52 -2 46 -17z
m631 1 c-3 -9 -9 -27 -12 -40 l-6 -24 -151 0 c-188 0 -190 19 -2 23 92 1 130
6 133 15 6 20 -231 17 -263 -4 -32 -21 -31 -30 5 -49 20 -10 27 -20 23 -31 -5
-14 5 -16 86 -13 50 2 91 1 91 -2 0 -4 -6 -21 -14 -39 l-13 -32 -119 1 c-110
1 -117 0 -99 -15 11 -8 19 -22 17 -30 -2 -12 18 -14 117 -14 l119 0 -15 -40
-16 -40 -136 0 c-148 0 -181 10 -181 53 0 31 75 225 97 250 34 38 72 46 212
47 118 0 132 -2 127 -16z m-2422 -83 c17 -19 17 -21 -20 -53 -21 -18 -58 -52
-81 -76 l-43 -42 0 80 0 80 39 0 c22 0 44 6 51 15 17 20 33 19 54 -4z m571 3
c14 -9 21 -22 18 -30 -4 -12 15 -14 116 -14 116 0 121 -1 136 -24 14 -22 14
-28 -5 -80 -33 -86 -56 -98 -204 -103 -184 -5 -214 6 -200 76 6 30 8 31 61 31
66 0 70 -23 5 -28 -37 -3 -42 -6 -42 -28 0 -28 -5 -27 175 -24 113 2 121 3
147 27 27 26 41 59 42 103 l1 25 -105 1 c-58 1 -112 2 -120 3 -14 1 -68 81
-55 81 3 0 17 -7 30 -16z m-511 -10 c9 -3 16 -14 15 -23 0 -10 -2 -11 -6 -3
-2 6 -14 12 -24 12 -11 0 -17 5 -14 10 7 12 8 12 29 4z m-44 -49 c-7 -8 -9
-15 -4 -15 5 -1 -1 -9 -14 -20 -12 -10 -18 -21 -13 -24 5 -4 12 -2 16 4 3 5
11 10 17 10 7 0 6 -6 -2 -15 -9 -11 -9 -15 -1 -15 6 0 19 9 28 20 10 11 27 20
38 20 26 0 82 -55 66 -64 -6 -4 -11 0 -11 8 0 22 -19 29 -37 14 -14 -11 -16
-11 -9 1 6 9 5 12 -4 9 -7 -2 -15 -14 -17 -26 -3 -21 -1 -22 20 -11 21 11 21
11 7 -6 -14 -16 -13 -17 8 -11 18 6 21 4 15 -10 -5 -14 -3 -15 14 -5 11 6 23
17 26 26 5 12 13 11 49 -8 53 -28 59 -64 15 -85 -37 -18 -126 -17 -185 2 -26
8 -73 20 -105 26 -32 7 -61 18 -63 25 -8 21 25 64 91 116 64 51 75 58 55 34z
m71 -12 c13 -16 12 -17 -3 -5 -10 8 -26 11 -39 7 -14 -5 -19 -4 -15 4 11 17
42 13 57 -6z m-183 -184 c10 0 12 -2 4 -6 -15 -6 -62 23 -62 37 0 6 9 1 20
-10 11 -11 28 -20 38 -21z m49 -15 c-3 -3 -12 -4 -19 -1 -8 3 -5 6 6 6 11 1
17 -2 13 -5z m40 0 c-3 -3 -12 -4 -19 -1 -8 3 -5 6 6 6 11 1 17 -2 13 -5z"/>
<path d="M1396 713 c-13 -13 -36 -74 -36 -94 0 -11 -4 -19 -10 -19 -5 0 -10
-10 -10 -23 0 -13 -11 -46 -25 -73 -30 -59 -31 -74 -6 -74 30 0 46 26 33 55
-19 41 3 48 157 49 122 1 142 3 160 20 12 11 21 25 21 33 0 7 5 13 10 13 6 0
10 10 10 23 0 13 5 28 11 34 6 6 9 21 7 34 -3 24 -4 24 -159 27 -85 1 -159 -1
-163 -5z m254 -38 c10 -12 10 -22 0 -47 -25 -64 -34 -68 -134 -68 -81 0 -93 2
-104 20 -7 12 -10 25 -7 30 3 5 1 19 -5 30 -22 41 1 50 125 50 88 0 115 -3
125 -15z"/>
<path d="M1405 660 c3 -5 13 -10 21 -10 17 0 18 -14 4 -41 -10 -18 -7 -19 85
-19 l95 0 15 36 c8 20 15 38 15 40 0 2 -54 4 -121 4 -77 0 -118 -4 -114 -10z"/>
<path d="M1863 703 c-3 -10 -13 -34 -21 -53 -20 -48 -62 -170 -68 -197 -3 -18
0 -23 15 -23 25 0 34 14 59 85 11 33 32 90 46 128 14 37 26 70 26 72 0 14 -51
3 -57 -12z"/>
<path d="M2065 698 c-4 -13 -8 -25 -9 -28 -28 -63 -66 -167 -76 -207 -7 -30
-6 -33 14 -33 14 0 25 10 34 30 6 17 17 43 24 59 7 17 23 35 35 42 29 16 49 0
65 -52 6 -22 15 -39 20 -39 5 0 6 -4 3 -10 -3 -5 -2 -10 2 -10 5 0 9 -9 10
-20 1 -10 10 -39 21 -62 13 -31 25 -44 41 -45 20 -2 22 1 16 30 -4 18 -11 36
-16 42 -5 5 -9 15 -9 22 0 7 -9 35 -21 61 -49 111 -54 129 -39 147 16 20 5 19
-26 -2 -23 -15 -26 -15 -42 0 -14 14 -15 22 -4 49 6 17 9 35 6 39 -10 17 -42
9 -49 -13z"/>
<path d="M2280 710 c-9 -6 -10 -10 -3 -10 6 0 15 5 18 10 8 12 4 12 -15 0z"/>
<path d="M2220 670 c-14 -11 -20 -20 -15 -20 6 0 21 9 35 20 14 11 21 20 15
20 -5 0 -21 -9 -35 -20z"/>
<path d="M2424 603 c-10 -32 -24 -68 -30 -80 -6 -13 -11 -37 -10 -55 l1 -33
124 -3 c126 -3 167 2 143 17 -6 4 -51 6 -99 5 l-88 -2 -28 40 c-21 30 -26 43
-17 52 6 6 58 13 117 16 73 3 108 9 111 18 3 9 -15 12 -68 12 -72 0 -83 5
-106 45 -19 34 -30 27 -50 -32z"/>
<path d="M302 624 c-13 -9 -29 -13 -37 -10 -12 4 -15 -3 -15 -31 0 -34 1 -35
18 -20 10 10 22 17 26 17 4 0 16 10 27 23 32 38 21 50 -19 21z"/>
<path d="M417 532 c-18 -20 -22 -32 -9 -32 10 1 45 50 34 50 -5 0 -16 -8 -25
-18z"/>
<path d="M291 502 c-41 -35 -39 -50 7 -57 20 -4 54 -13 75 -21 83 -31 217 -27
217 7 0 21 -45 30 -74 15 -26 -13 -31 -12 -78 15 -27 16 -53 29 -58 29 -6 0
-10 4 -10 8 0 5 -11 14 -24 20 -22 10 -29 7 -55 -16z"/>
</g>
</svg>
