<?xml version="1.0" standalone="no"?>
<!DOCTYPE svg PUBLIC "-//W3C//DTD SVG 20010904//EN"
 "http://www.w3.org/TR/2001/REC-SVG-20010904/DTD/svg10.dtd">
<svg version="1.0" xmlns="http://www.w3.org/2000/svg"
 width="300.000000pt" height="121.000000pt" viewBox="0 0 300.000000 121.000000"
 preserveAspectRatio="xMidYMid meet">
<metadata>
Created by potrace 1.10, written by Peter Selinger 2001-2011
</metadata>
<g transform="translate(0.000000,121.000000) scale(0.100000,-0.100000)"
fill="#000000" stroke="none">
<path d="M943 738 c-41 -11 -72 -47 -90 -105 -26 -84 -21 -87 131 -91 69 -1
126 -5 126 -7 0 -2 -5 -16 -12 -30 -11 -24 -14 -25 -104 -25 -79 0 -92 2 -88
15 5 12 -4 15 -49 15 -53 0 -55 -1 -61 -31 -7 -36 8 -69 32 -70 9 0 79 0 155
0 166 1 184 9 217 97 19 52 19 58 5 80 -15 23 -20 24 -136 24 -103 0 -120 2
-115 15 3 9 -5 20 -22 29 -25 14 -18 15 96 16 104 0 122 -2 122 -16 0 -12 10
-14 53 -12 52 3 52 3 55 39 5 55 -10 61 -158 63 -72 0 -142 -2 -157 -6z m284
-45 c7 -19 -36 -26 -61 -9 -13 8 -50 17 -82 19 -33 2 -14 3 40 3 66 -1 101 -5
103 -13z m-307 -62 c25 -47 36 -51 152 -51 l111 0 -7 -42 c-4 -28 -17 -53 -35
-72 -27 -26 -36 -29 -110 -31 -45 -1 -81 2 -81 6 0 5 30 9 68 9 53 0 71 4 83
18 27 31 29 62 8 83 -17 17 -33 19 -120 18 -115 -1 -128 5 -109 50 14 36 25
39 40 12z m-13 -171 c21 -11 36 -20 33 -21 -68 -12 -122 3 -106 29 10 17 31
15 73 -8z"/>
<path d="M1374 735 c-14 -39 -113 -303 -119 -317 -6 -16 -1 -18 47 -18 l55 0
12 42 c8 26 9 44 3 46 -5 1 -17 9 -27 16 -17 12 -17 16 6 79 23 65 41 80 47
41 6 -35 25 -64 43 -64 10 0 21 -4 24 -10 4 -6 -14 -10 -48 -10 -36 0 -59 -5
-67 -15 -11 -13 5 -15 138 -15 l151 0 35 30 c44 39 84 147 66 179 -6 12 -16
21 -23 22 -100 6 -340 2 -343 -6z m62 -34 c-16 -3 -31 -12 -34 -18 -3 -10 25
-13 117 -13 67 0 121 -2 121 -4 0 -2 -7 -20 -15 -39 l-15 -36 -91 -3 c-50 -2
-92 -1 -95 1 -2 2 2 13 7 24 9 16 7 23 -17 42 -36 29 -27 55 18 54 l33 -1 -29
-7z m271 -25 c-15 -95 -63 -137 -149 -135 l-43 1 53 10 c44 8 57 15 73 41 35
58 17 101 -46 110 -16 2 3 5 44 6 l74 1 -6 -34z m-369 -208 c-4 -27 -28 -36
-28 -10 0 20 8 32 22 32 5 0 8 -10 6 -22z"/>
<path d="M1796 591 c-32 -86 -60 -164 -63 -174 -5 -16 0 -18 47 -15 l53 3 57
155 c31 85 60 163 65 172 6 15 0 17 -48 17 l-54 -1 -57 -157z m99 80 c-4 -14
-25 -72 -47 -128 -38 -98 -58 -127 -58 -83 0 20 44 146 76 218 17 38 39 33 29
-7z"/>
<path d="M2056 742 c-3 -5 -29 -75 -60 -158 -30 -82 -58 -157 -61 -167 -7 -16
-2 -18 46 -15 l54 3 25 70 c16 45 32 71 43 73 9 2 17 -2 17 -8 0 -7 19 -63 43
-126 l42 -114 54 0 c38 0 52 3 48 13 -2 6 -28 73 -57 147 -29 74 -54 138 -56
141 -2 4 43 37 99 75 l102 69 -47 3 c-43 3 -55 -2 -138 -58 -90 -61 -112 -87
-65 -78 13 3 22 2 20 -3 -5 -7 39 -134 69 -204 26 -58 27 -67 9 -63 -12 2 -31
38 -58 108 -35 87 -46 107 -68 114 -22 8 -31 6 -51 -13 -14 -13 -28 -36 -31
-52 -7 -29 -31 -56 -42 -46 -9 10 79 246 95 252 10 4 13 -3 11 -29 -5 -56 9
-53 36 8 14 31 25 59 25 61 0 9 -99 5 -104 -3z"/>
<path d="M2494 736 c-17 -8 -40 -25 -51 -40 -22 -28 -93 -216 -93 -246 0 -40
36 -50 181 -50 l136 0 16 40 15 40 -119 0 c-99 0 -119 2 -117 14 2 8 -6 22
-17 30 -18 15 -11 16 99 15 l119 -1 13 32 c8 18 14 35 14 39 0 3 -40 4 -90 3
-84 -4 -90 -3 -90 15 0 11 -10 25 -22 31 -18 8 12 11 127 11 l151 1 12 33 c7
18 12 36 12 40 0 13 -264 7 -296 -7z m-17 -168 c-22 -4 -43 -5 -45 -3 -3 3 0
24 7 47 l13 42 33 -40 33 -39 -41 -7z m-27 -116 c0 -9 -10 -12 -27 -10 -21 2
-29 9 -31 27 -5 35 19 46 40 18 10 -12 18 -28 18 -35z"/>
<path d="M310 655 c-7 -9 -29 -15 -51 -15 l-39 0 0 -80 0 -80 48 48 c26 26 63
60 81 75 32 27 32 29 15 48 -21 23 -37 24 -54 4z m-4 -61 c-8 -8 -19 -14 -25
-14 -6 0 -11 -6 -11 -12 0 -9 -3 -9 -9 1 -10 15 -3 44 8 37 4 -3 13 -1 21 4
21 13 32 1 16 -16z"/>
<path d="M306 539 c-44 -41 -76 -79 -74 -87 4 -20 156 -61 254 -69 54 -4 79
-1 103 11 37 20 41 49 9 70 -44 27 -66 28 -90 4 -20 -20 -23 -21 -26 -6 -2 11
-9 15 -19 11 -12 -5 -14 -3 -8 7 6 10 4 12 -8 7 -13 -5 -16 -1 -13 16 4 30 56
35 63 7 3 -11 10 -17 15 -14 5 3 -1 17 -13 30 -17 18 -25 21 -31 12 -5 -9 -8
-8 -8 5 0 9 -4 17 -10 17 -5 0 -9 -3 -8 -7 4 -13 -31 -57 -38 -50 -4 4 1 17
12 29 19 23 19 23 -2 6 -11 -10 -26 -18 -32 -18 -7 0 -9 7 -5 18 6 14 4 15 -9
4 -11 -9 -18 -10 -23 -2 -3 5 -1 10 4 10 6 0 11 5 11 12 0 6 7 20 17 30 37 41
0 14 -71 -53z m124 -75 c47 -26 60 -29 87 -21 42 13 70 3 53 -18 -8 -9 -30
-15 -59 -15 -53 0 -234 43 -238 57 -2 5 8 22 22 37 l25 27 28 -19 c15 -10 52
-32 82 -48z"/>
</g>
</svg>
